<svg xmlns="http://www.w3.org/2000/svg" viewBox="0 0 331.21 334.21"><defs><style>.cls-1,.cls-3{fill:#ff7000;}.cls-2{fill:#f90101;}.cls-2,.cls-3,.cls-4,.cls-5,.cls-6,.cls-7{stroke:#fff;stroke-miterlimit:10;stroke-width:6px;}.cls-4{fill:#ff0;}.cls-5{fill:#00ad4e;}.cls-6{fill:blue;}.cls-7{fill:#bd31ff;}.cls-8{fill:#fff;}</style></defs><g id="Layer_2" data-name="Layer 2"><g id="Layer_1-2" data-name="Layer 1"><path class="cls-1" d="M190.1,24.5A163.79,163.79,0,0,0,73,73.44a168.19,168.19,0,0,0,0,236.32,164.54,164.54,0,0,0,234.2,0,168.16,168.16,0,0,0,0-236.32A163.76,163.76,0,0,0,190.1,24.5Zm0,312.08c-74,0-134.14-58.31-134.14-130s60.18-130,134.14-130,134.15,58.31,134.15,130-60.18,130-134.15,130Z" transform="translate(-24.5 -24.5)"/><path class="cls-1" d="M132.23,153.82l-.27,0c-3.62.44-17.22,2.57-16.91,5.06l32.63,175.72a4.32,4.32,0,0,1,1.26,3.1c.08,2.67,3.6,1.47,5,1.35a5,5,0,0,0,.86-.15,10.41,10.41,0,0,0,.68-.92L138.59,158.29a.69.69,0,0,1,.33-.75C144.7,155.35,135.76,153.39,132.23,153.82Z" transform="translate(-24.5 -24.5)"/><path class="cls-2" d="M254.55,120c-37.79.25-78.09,15.36-113,36.2a1.53,1.53,0,0,0-.63,1.41q1,7.48,2,15.25c.07.55.46.86.88.69,41.56-17,90.43-30.89,133.52-27.29.68.06.93-1.33.41-2.28-6.27-11.31-14.2-20.26-22.91-23.94A.39.39,0,0,0,254.55,120Z" transform="translate(-24.5 -24.5)"/><path class="cls-3" d="M143,173.83l-.27.11a1.27,1.27,0,0,0-.63,1.3q1,7.72,1.95,15.73c.07.57.47.95.89.85,44.53-10.24,97.34-22.74,142.31-21,.53,0,.83-.86.59-1.72a119.22,119.22,0,0,0-8.57-22.16.9.9,0,0,0-.65-.58C234.93,142.32,185.13,156.52,143,173.83Z" transform="translate(-24.5 -24.5)"/><path class="cls-4" d="M147.88,210.61l.25,0,0-.29c44.38-2.68,96.51-13,140.75-16.31,1.3-3,2-4.46,3.26-7.32-.46-3.53-1.08-7-1.83-10.44-.64-2.94-2.35-5.09-4.13-5.16C243,169.69,192.71,181.17,149.53,191c-2.14.51-3.57,3.26-3.22,6.19Q147.09,203.81,147.88,210.61Z" transform="translate(-24.5 -24.5)"/><path class="cls-5" d="M148,215.36q.53,4.51,1,9.11c.32,2.74,2.11,5.16,4,5.34,43.35,3.77,93.42-4.62,136.07-13,1.54-.3,2.75-2.3,3-4.86q.46-5.7.37-11.67c-.07-3.41-1.87-6.29-3.91-6.15-43.26,3.26-94,13.22-137.67,16.09C148.93,210.39,147.64,212.66,148,215.36Z" transform="translate(-24.5 -24.5)"/><path class="cls-6" d="M155.39,250.1c41.09,9.5,88,3.43,128.72-8.95a4.71,4.71,0,0,0,2.66-3.2,107.61,107.61,0,0,0,3.28-12.17c.91-4.32-1.18-8.77-3.9-8.28-41.94,8.17-90.63,16.08-132.94,12.4-2-.15-3.37,2-3.05,5s.66,5.91,1,8.89S153.36,249.62,155.39,250.1Z" transform="translate(-24.5 -24.5)"/><path class="cls-7" d="M284.69,243.58c.4-1-.06-2.23-.73-2-41.9,12.79-90.29,18.78-132.19,8l0-.3h0c-.42-.11-.71.31-.64.95q1,8.94,2,18.14a1.92,1.92,0,0,0,.89,1.49c34.74,13.95,73.77,13.06,109.77,2.21a.42.42,0,0,0,.14-.06C272.57,266.49,279.73,255.89,284.69,243.58Z" transform="translate(-24.5 -24.5)"/><path class="cls-7" d="M285.68,241l.15-.39c-42.34,13.1-91.57,19.46-134.09,8.59l0,.3C194.24,260.48,243.39,254.17,285.68,241Z" transform="translate(-24.5 -24.5)"/><path class="cls-1" d="M123.51,162.49c-12,0-21.82-9.48-21.82-21.14s9.79-21.14,21.82-21.14,21.83,9.48,21.83,21.14S135.55,162.49,123.51,162.49Z" transform="translate(-24.5 -24.5)"/><path class="cls-8" d="M123.51,123.21c10.4,0,18.83,8.12,18.83,18.14s-8.43,18.14-18.83,18.14-18.82-8.12-18.82-18.14,8.43-18.14,18.82-18.14m0-6c-13.69,0-24.82,10.83-24.82,24.14s11.13,24.14,24.82,24.14,24.83-10.83,24.83-24.14-11.14-24.14-24.83-24.14Z" transform="translate(-24.5 -24.5)"/></g></g></svg>